<?xml version="1.0" encoding="UTF-8"?> <svg xmlns="http://www.w3.org/2000/svg" width="115" height="153" viewBox="0 0 115 153" fill="none"><path d="M37.0933 124.841C37.0933 124.481 36.9663 124.206 36.7124 124.016C36.4585 123.821 36.0015 123.618 35.3413 123.406C34.6812 123.191 34.1585 122.979 33.7734 122.772C32.724 122.205 32.1992 121.441 32.1992 120.48C32.1992 119.981 32.3389 119.537 32.6182 119.147C32.9017 118.754 33.3058 118.447 33.8306 118.227C34.3595 118.007 34.952 117.897 35.6079 117.897C36.2681 117.897 36.8563 118.017 37.3726 118.259C37.8888 118.496 38.2887 118.832 38.5723 119.268C38.86 119.704 39.0039 120.199 39.0039 120.753H37.0996C37.0996 120.33 36.9663 120.002 36.6997 119.769C36.4331 119.532 36.0586 119.414 35.5762 119.414C35.1107 119.414 34.7489 119.513 34.4907 119.712C34.2326 119.907 34.1035 120.165 34.1035 120.487C34.1035 120.787 34.2537 121.039 34.5542 121.242C34.8589 121.445 35.3053 121.635 35.8936 121.813C36.9769 122.139 37.7661 122.543 38.2612 123.026C38.7563 123.508 39.0039 124.109 39.0039 124.828C39.0039 125.628 38.7013 126.257 38.0962 126.714C37.491 127.166 36.6764 127.393 35.6523 127.393C34.9414 127.393 34.2939 127.264 33.71 127.006C33.126 126.743 32.6795 126.386 32.3706 125.933C32.0659 125.48 31.9136 124.955 31.9136 124.359H33.8242C33.8242 125.378 34.4336 125.888 35.6523 125.888C36.1051 125.888 36.4585 125.797 36.7124 125.615C36.9663 125.429 37.0933 125.171 37.0933 124.841ZM48.8237 127.266H46.9194V118.024H48.8237V127.266ZM63.8613 119.566H61.0303V127.266H59.126V119.566H56.333V118.024H63.8613V119.566ZM77.0137 123.26H73.3574V125.736H77.6484V127.266H71.4531V118.024H77.6357V119.566H73.3574V121.769H77.0137V123.26Z" fill="#29292A"></path><path d="M47.2463 79.7691L47.4845 79.1796L47.5445 79.0291V79.03L55.8496 58.4489L44.472 53.884L67.1989 30.9966L67.9269 30.0921L66.5204 29.492L55.3255 25.0001L46.9419 33.3601C47.0107 33.3865 47.0804 33.4094 47.1492 33.4375L49.3781 34.3315L35.2801 48.6177C34.7366 47.8786 34.3095 47.0963 33.9919 46.2745L25.9665 54.2773C26.7059 55.3772 27.5583 56.419 28.5281 57.401C30.3114 59.1687 32.5112 60.6522 35.1275 61.8515L35.2246 61.8902L35.6146 62.0469L41.6669 64.4754L34.5425 82.1317L44.6547 86.1898L47.2339 79.799H47.2348L47.248 79.7674L47.2463 79.7691Z" fill="#29292A"></path><path d="M90.4793 57.5691L81.9068 66.1174C82.0807 67.7048 81.8521 69.2965 81.2062 70.8962C80.7121 72.1237 79.992 73.2059 79.0505 74.1431C78.109 75.0793 77.0422 75.8166 75.851 76.3525C74.6588 76.8884 73.4014 77.1717 72.0743 77.2025C71.6622 77.2131 71.2528 77.1928 70.8434 77.1497L62.1747 85.7939L64.0904 86.563C66.7552 87.6321 69.4757 88.1406 72.2534 88.0914C75.0294 88.0403 77.6466 87.4957 80.1076 86.4547C82.5668 85.4138 84.7764 83.9144 86.7362 81.9593C88.696 80.0032 90.2119 77.7005 91.2805 75.0511C92.8467 71.1725 93.2235 67.1918 92.4126 63.1116C92.0199 61.1354 91.3749 59.2884 90.4793 57.5691Z" fill="#29292A"></path><path d="M68.1463 76.472L65.9182 75.5772L80.0153 61.2918C80.678 62.1929 81.1704 63.1581 81.4977 64.1815L89.6237 56.0793C88.8207 54.8131 87.8686 53.6225 86.7683 52.5086C84.985 50.74 82.7852 49.2573 80.1689 48.058L80.0718 48.0193L79.6809 47.8618L73.6294 45.4341L80.7539 27.7779L70.6399 23.7197L68.1648 29.8562L67.6362 31.1708L67.6336 31.1699L59.4467 51.4606L70.8234 56.0256L47.8565 79.154L47.2 79.7726L48.7768 80.4175L60.4994 85.1215L68.9033 76.7404C68.6501 76.6603 68.3977 76.5732 68.1463 76.472Z" fill="#29292A"></path><path d="M33.4142 44.0379C33.1866 42.3696 33.4098 40.6951 34.0893 39.0136C34.5843 37.7861 35.3043 36.7029 36.245 35.7658C37.1856 34.8305 38.2533 34.0931 39.4445 33.5564C40.6366 33.0205 41.8949 32.7372 43.2211 32.7064C43.8521 32.6914 44.4803 32.7407 45.1033 32.8507L53.6502 24.3279L51.205 23.3468C48.5402 22.2777 45.8207 21.7682 43.0429 21.8184C40.266 21.8694 37.6488 22.4141 35.1878 23.4542C32.7286 24.496 30.5191 25.9944 28.5593 27.9496C26.5986 29.9056 25.0844 32.2084 24.015 34.8578C22.4496 38.7373 22.072 42.718 22.8829 46.7981C23.3126 48.9601 24.0459 50.9672 25.0765 52.822L33.4813 44.44C33.4575 44.3062 33.4328 44.1734 33.4142 44.0379Z" fill="#29292A"></path><path d="M24.1447 105.366V101.022H25.8056V99.3496H22.4679V110.825H24.1447V107.005H25.8056V105.366H24.1447Z" fill="#29292A"></path><path d="M26.6763 99.3495H26.5057V101.022H26.6763C28.0739 101.022 28.7641 102.103 28.7641 103.202C28.7641 104.284 28.0739 105.366 26.6763 105.366H26.5057V107.005H26.6763C29.1588 107.005 30.4083 105.104 30.4083 103.186C30.4083 101.268 29.1588 99.3495 26.6763 99.3495Z" fill="#29292A"></path><path d="M47.6157 104.926C47.6157 103.303 46.9418 101.844 45.9058 100.778C44.9165 99.7919 43.5881 99.1437 42.105 99.0528V100.732C43.1044 100.82 44.0317 101.27 44.7223 101.959C45.4619 102.713 45.9389 103.746 45.9389 104.926C45.9389 106.107 45.4619 107.139 44.7223 107.893C44.0317 108.582 43.1044 109.032 42.105 109.12V110.8C43.5881 110.711 44.9165 110.075 45.9058 109.074C46.9418 108.008 47.6157 106.549 47.6157 104.926Z" fill="#29292A"></path><path d="M38.8042 107.893C38.0479 107.139 37.5709 106.09 37.5709 104.926C37.5709 103.762 38.0479 102.713 38.8042 101.959C39.4836 101.266 40.4026 100.816 41.4051 100.731V99.052C39.9272 99.1397 38.581 99.7887 37.6039 100.779C36.5684 101.844 35.8945 103.303 35.8945 104.926C35.8945 106.549 36.5684 108.008 37.6039 109.074C38.581 110.078 39.9272 110.715 41.4051 110.8V109.122C40.4026 109.036 39.4836 108.586 38.8042 107.893Z" fill="#29292A"></path><path d="M64.9328 99.052C64.0779 101.658 63.0753 104.577 62.1711 107.314L60.2969 101.97H58.9654L57.0746 107.331L54.3292 99.052H52.603L56.4663 110.577H57.6335C58.2255 108.839 58.9654 106.921 59.6226 105.052L61.6448 110.577H62.812L66.6753 99.052H64.9328Z" fill="#29292A"></path><path d="M79.2986 100.708V99.052H72.2953V110.511H79.3153V108.855H73.9721V105.609H79.1836V103.937H73.9721V100.708H79.2986Z" fill="#29292A"></path><path d="M92.1706 103.005C92.1706 101.186 90.921 99.3496 88.4223 99.3496H84.23V110.825H85.8742V101.022H88.4223C89.8199 101.022 90.5101 102.022 90.5101 103.005C90.5101 104.005 89.8199 105.005 88.4223 105.005H86.4825V105.792L90.6744 110.825H92.8278L89.1953 106.513C91.1677 106.169 92.1706 104.628 92.1706 103.005Z" fill="#29292A"></path></svg> 