<?xml version="1.0" encoding="UTF-8"?> <svg xmlns="http://www.w3.org/2000/svg" width="1440" height="795" viewBox="0 0 1440 795" fill="none"><g clip-path="url(#clip0)"><rect width="1440" height="795" fill="white"></rect><rect x="243" width="1" height="900" fill="#F2F2F2"></rect><rect x="973" width="1" height="900" fill="#F2F2F2"></rect><rect x="1357" width="1" height="900" fill="#F2F2F2"></rect><rect x="243" y="-11" width="1" height="900" fill="#F2F2F2"></rect><rect x="603" y="-11" width="1" height="900" fill="#F2F2F2"></rect><rect x="973" y="-11" width="1" height="900" fill="#F2F2F2"></rect><rect x="1357" y="-11" width="1" height="900" fill="#F2F2F2"></rect><rect y="284" width="1" height="1440" transform="rotate(-90 0 284)" fill="#F2F2F2"></rect><rect y="563" width="1" height="1440" transform="rotate(-90 0 563)" fill="#F2F2F2"></rect><path d="M142.568 155.72H189.8V356.744H244.808V389H142.568V155.72ZM329.658 155.72H382.362L427.29 389H383.514L374.874 337.736H338.01L329.082 389H284.442L329.658 155.72ZM370.266 308.36L356.154 214.472L342.33 308.36H370.266ZM479.731 155.72H512.851L564.691 276.968V155.72H604.147V389H572.179L520.339 259.976V389H479.731V155.72ZM667.999 155.72H725.023C744.607 155.72 759.871 158.312 770.815 163.496C781.951 168.488 789.823 176.264 794.431 186.824C799.231 197.384 801.631 211.4 801.631 228.872V313.832C801.631 331.688 799.327 346.088 794.719 357.032C790.111 367.784 782.335 375.848 771.391 381.224C760.447 386.408 745.375 389 726.175 389H667.999V155.72ZM725.599 355.88C733.855 355.88 739.903 354.632 743.743 352.136C747.775 349.448 750.271 345.608 751.231 340.616C752.383 335.624 752.959 328.424 752.959 319.016V222.536C752.959 213.704 752.287 207.08 750.943 202.664C749.791 198.056 747.295 194.696 743.455 192.584C739.615 190.28 733.567 189.128 725.311 189.128H715.231V355.88H725.599ZM862.469 155.72H909.701V389H862.469V155.72ZM973.943 155.72H1007.06L1058.9 276.968V155.72H1098.36V389H1066.39L1014.55 259.976V389H973.943V155.72ZM1221.83 392.456C1199.17 392.456 1182.95 385.544 1173.16 371.72C1163.56 357.704 1158.76 337.736 1158.76 311.816V233.768C1158.76 207.272 1163.84 187.208 1174.02 173.576C1184.39 159.752 1202.05 152.84 1227.01 152.84C1251.01 152.84 1268.1 158.696 1278.28 170.408C1288.45 182.12 1293.54 199.016 1293.54 221.096V234.632H1247.46V218.216C1247.46 207.464 1246.21 199.592 1243.72 194.6C1241.41 189.416 1236.04 186.824 1227.59 186.824C1218.95 186.824 1213.38 189.704 1210.88 195.464C1208.39 201.224 1207.14 209.576 1207.14 220.52V324.2C1207.14 335.144 1208.68 343.592 1211.75 349.544C1214.82 355.304 1220.58 358.184 1229.03 358.184C1237.28 358.184 1243.04 355.112 1246.31 348.968C1249.76 342.632 1251.49 333.896 1251.49 322.76V297.992H1228.74V269.192H1294.4V389H1263.3L1260.13 368.264C1253.03 384.392 1240.26 392.456 1221.83 392.456ZM142.568 421.72H216.584C256.904 421.72 277.064 444.088 277.064 488.824C277.064 512.44 271.304 529.24 259.784 539.224C248.264 549.016 232.232 553.912 211.688 553.912H189.8V655H142.568V421.72ZM206.792 520.504C216.968 520.504 223.784 518.104 227.24 513.304C230.696 508.504 232.424 500.056 232.424 487.96C232.424 480.088 231.848 473.944 230.696 469.528C229.544 464.92 227.048 461.368 223.208 458.872C219.56 456.376 213.992 455.128 206.504 455.128H189.8V520.504H206.792ZM350.752 421.72H403.456L448.384 655H404.608L395.968 603.736H359.104L350.176 655H305.536L350.752 421.72ZM391.36 574.36L377.248 480.472L363.424 574.36H391.36ZM557.347 658.456C534.691 658.456 518.467 651.544 508.675 637.72C499.075 623.704 494.275 603.736 494.275 577.816V499.768C494.275 473.272 499.363 453.208 509.539 439.576C519.907 425.752 537.571 418.84 562.531 418.84C586.531 418.84 603.619 424.696 613.795 436.408C623.971 448.12 629.059 465.016 629.059 487.096V500.632H582.979V484.216C582.979 473.464 581.731 465.592 579.235 460.6C576.931 455.416 571.555 452.824 563.107 452.824C554.467 452.824 548.899 455.704 546.403 461.464C543.907 467.224 542.659 475.576 542.659 486.52V590.2C542.659 601.144 544.195 609.592 547.267 615.544C550.339 621.304 556.099 624.184 564.547 624.184C572.803 624.184 578.563 621.112 581.827 614.968C585.283 608.632 587.011 599.896 587.011 588.76V563.992H564.259V535.192H629.923V655H598.819L595.651 634.264C588.547 650.392 575.779 658.456 557.347 658.456ZM691.343 421.72H793.007V454.552H738.575V516.472H780.623V549.592H738.575V622.744H793.583V655H691.343V421.72Z" fill="#F8F8F8"></path></g><defs><clipPath id="clip0"><rect width="1440" height="795" fill="white"></rect></clipPath></defs></svg> 