<?xml version="1.0" encoding="UTF-8"?> <svg xmlns="http://www.w3.org/2000/svg" width="1440" height="900" viewBox="0 0 1440 900" fill="none"><g clip-path="url(#clip0)"><rect width="1440" height="900" fill="white"></rect><path d="M119.568 180.72H166.8V381.744H221.808V414H119.568V180.72ZM306.658 180.72H359.362L404.29 414H360.514L351.874 362.736H315.01L306.082 414H261.442L306.658 180.72ZM347.266 333.36L333.154 239.472L319.33 333.36H347.266ZM456.731 180.72H489.851L541.691 301.968V180.72H581.147V414H549.179L497.339 284.976V414H456.731V180.72ZM644.999 180.72H702.023C721.607 180.72 736.871 183.312 747.815 188.496C758.951 193.488 766.823 201.264 771.431 211.824C776.231 222.384 778.631 236.4 778.631 253.872V338.832C778.631 356.688 776.327 371.088 771.719 382.032C767.111 392.784 759.335 400.848 748.391 406.224C737.447 411.408 722.375 414 703.175 414H644.999V180.72ZM702.599 380.88C710.855 380.88 716.903 379.632 720.743 377.136C724.775 374.448 727.271 370.608 728.231 365.616C729.383 360.624 729.959 353.424 729.959 344.016V247.536C729.959 238.704 729.287 232.08 727.943 227.664C726.791 223.056 724.295 219.696 720.455 217.584C716.615 215.28 710.567 214.128 702.311 214.128H692.231V380.88H702.599ZM839.469 180.72H886.701V414H839.469V180.72ZM950.943 180.72H984.063L1035.9 301.968V180.72H1075.36V414H1043.39L991.551 284.976V414H950.943V180.72ZM1198.83 417.456C1176.17 417.456 1159.95 410.544 1150.16 396.72C1140.56 382.704 1135.76 362.736 1135.76 336.816V258.768C1135.76 232.272 1140.84 212.208 1151.02 198.576C1161.39 184.752 1179.05 177.84 1204.01 177.84C1228.01 177.84 1245.1 183.696 1255.28 195.408C1265.45 207.12 1270.54 224.016 1270.54 246.096V259.632H1224.46V243.216C1224.46 232.464 1223.21 224.592 1220.72 219.6C1218.41 214.416 1213.04 211.824 1204.59 211.824C1195.95 211.824 1190.38 214.704 1187.88 220.464C1185.39 226.224 1184.14 234.576 1184.14 245.52V349.2C1184.14 360.144 1185.68 368.592 1188.75 374.544C1191.82 380.304 1197.58 383.184 1206.03 383.184C1214.28 383.184 1220.04 380.112 1223.31 373.968C1226.76 367.632 1228.49 358.896 1228.49 347.76V322.992H1205.74V294.192H1271.4V414H1240.3L1237.13 393.264C1230.03 409.392 1217.26 417.456 1198.83 417.456ZM119.568 446.72H193.584C233.904 446.72 254.064 469.088 254.064 513.824C254.064 537.44 248.304 554.24 236.784 564.224C225.264 574.016 209.232 578.912 188.688 578.912H166.8V680H119.568V446.72ZM183.792 545.504C193.968 545.504 200.784 543.104 204.24 538.304C207.696 533.504 209.424 525.056 209.424 512.96C209.424 505.088 208.848 498.944 207.696 494.528C206.544 489.92 204.048 486.368 200.208 483.872C196.56 481.376 190.992 480.128 183.504 480.128H166.8V545.504H183.792ZM327.752 446.72H380.456L425.384 680H381.608L372.968 628.736H336.104L327.176 680H282.536L327.752 446.72ZM368.36 599.36L354.248 505.472L340.424 599.36H368.36ZM534.347 683.456C511.691 683.456 495.467 676.544 485.675 662.72C476.075 648.704 471.275 628.736 471.275 602.816V524.768C471.275 498.272 476.363 478.208 486.539 464.576C496.907 450.752 514.571 443.84 539.531 443.84C563.531 443.84 580.619 449.696 590.795 461.408C600.971 473.12 606.059 490.016 606.059 512.096V525.632H559.979V509.216C559.979 498.464 558.731 490.592 556.235 485.6C553.931 480.416 548.555 477.824 540.107 477.824C531.467 477.824 525.899 480.704 523.403 486.464C520.907 492.224 519.659 500.576 519.659 511.52V615.2C519.659 626.144 521.195 634.592 524.267 640.544C527.339 646.304 533.099 649.184 541.547 649.184C549.803 649.184 555.563 646.112 558.827 639.968C562.283 633.632 564.011 624.896 564.011 613.76V588.992H541.259V560.192H606.923V680H575.819L572.651 659.264C565.547 675.392 552.779 683.456 534.347 683.456ZM668.343 446.72H770.007V479.552H715.575V541.472H757.623V574.592H715.575V647.744H770.583V680H668.343V446.72Z" fill="#F8F8F8"></path><rect x="973" width="1" height="900" fill="#E0E0E0"></rect><rect x="1357" width="1" height="900" fill="#E0E0E0"></rect><rect y="321" width="1" height="1440" transform="rotate(-90 0 321)" fill="#E0E0E0"></rect><rect y="499" width="1" height="1440" transform="rotate(-90 0 499)" fill="#E0E0E0"></rect><rect y="678" width="1" height="1440" transform="rotate(-90 0 678)" fill="#E0E0E0"></rect><rect x="608" width="1" height="900" fill="#E0E0E0"></rect><rect x="245" width="1" height="900" fill="#E0E0E0"></rect></g><defs><clipPath id="clip0"><rect width="1440" height="900" fill="white"></rect></clipPath></defs></svg> 