<?xml version="1.0" encoding="UTF-8"?> <svg xmlns="http://www.w3.org/2000/svg" width="1448" height="387" viewBox="0 0 1448 387" fill="none"><g clip-path="url(#clip0)" filter="url(#filter0_d)"><rect width="1440" height="379" transform="translate(4)" fill="#4A4A4A"></rect><rect x="248" width="1" height="900" fill="#575757"></rect><rect x="613" width="1" height="757" fill="#575757"></rect><rect x="978" width="1" height="757" fill="#575757"></rect><rect x="1362" width="1" height="757" fill="#575757"></rect><rect x="5" y="283" width="1" height="1440" transform="rotate(-90 5 283)" fill="#575757"></rect><rect x="5" y="85" width="1" height="1440" transform="rotate(-90 5 85)" fill="#575757"></rect><path d="M182.5 306.75C161 306.75 145.75 301 136.75 289.5C127.75 277.833 123.25 261.083 123.25 239.25V166.75C123.25 144.417 127.667 127.583 136.5 116.25C145.5 104.75 160.833 99 182.5 99C203.167 99 217.75 104.083 226.25 114.25C234.917 124.25 239.25 138.667 239.25 157.5V174.5H199.25V155.75C199.25 149.75 198.917 144.917 198.25 141.25C197.75 137.583 196.25 134.583 193.75 132.25C191.417 129.75 187.75 128.5 182.75 128.5C175.25 128.5 170.417 130.917 168.25 135.75C166.083 140.583 165 147.667 165 157V249C165 258.5 166.25 265.583 168.75 270.25C171.25 274.917 175.917 277.25 182.75 277.25C189.75 277.25 194.25 274.917 196.25 270.25C198.25 265.417 199.25 258.333 199.25 249V229.25H239.25V246C239.25 265.333 235 280.333 226.5 291C218 301.5 203.333 306.75 182.5 306.75ZM346.184 306.75C324.684 306.75 309.35 301.167 300.184 290C291.017 278.667 286.434 262.083 286.434 240.25V164.75C286.434 142.917 291.017 126.5 300.184 115.5C309.35 104.5 324.684 99 346.184 99C367.517 99 382.767 104.583 391.934 115.75C401.267 126.75 405.934 143.083 405.934 164.75V240.5C405.934 262.167 401.267 278.667 391.934 290C382.767 301.167 367.517 306.75 346.184 306.75ZM346.184 277.25C353.184 277.25 357.85 274.917 360.184 270.25C362.684 265.417 363.934 258.833 363.934 250.5V154.75C363.934 146.417 362.684 140 360.184 135.5C357.85 130.833 353.184 128.5 346.184 128.5C339.184 128.5 334.434 130.833 331.934 135.5C329.6 140 328.434 146.417 328.434 154.75V250.5C328.434 259 329.6 265.583 331.934 270.25C334.267 274.917 339.017 277.25 346.184 277.25ZM458.477 101.5H487.227L532.227 206.75V101.5H566.477V304H538.727L493.727 192V304H458.477V101.5ZM640.904 132H609.654V101.5H713.154V132H682.404V304H640.904V132ZM778.449 101.5H824.199L863.199 304H825.199L817.699 259.5H785.699L777.949 304H739.199L778.449 101.5ZM813.699 234L801.449 152.5L789.449 234H813.699ZM962.285 306.75C940.785 306.75 925.535 301 916.535 289.5C907.535 277.833 903.035 261.083 903.035 239.25V166.75C903.035 144.417 907.452 127.583 916.285 116.25C925.285 104.75 940.618 99 962.285 99C982.952 99 997.535 104.083 1006.04 114.25C1014.7 124.25 1019.04 138.667 1019.04 157.5V174.5H979.035V155.75C979.035 149.75 978.702 144.917 978.035 141.25C977.535 137.583 976.035 134.583 973.535 132.25C971.202 129.75 967.535 128.5 962.535 128.5C955.035 128.5 950.202 130.917 948.035 135.75C945.868 140.583 944.785 147.667 944.785 157V249C944.785 258.5 946.035 265.583 948.535 270.25C951.035 274.917 955.702 277.25 962.535 277.25C969.535 277.25 974.035 274.917 976.035 270.25C978.035 265.417 979.035 258.333 979.035 249V229.25H1019.04V246C1019.04 265.333 1014.79 280.333 1006.29 291C997.785 301.5 983.118 306.75 962.285 306.75ZM1088.22 132H1056.97V101.5H1160.47V132H1129.72V304H1088.22V132ZM1256.09 306.75C1237.42 306.75 1223.42 301.667 1214.09 291.5C1204.75 281.167 1199.67 265.25 1198.84 243.75L1234.34 237.75C1234.67 250.583 1236.42 260.083 1239.59 266.25C1242.92 272.25 1247.84 275.25 1254.34 275.25C1259.17 275.25 1262.67 273.75 1264.84 270.75C1267 267.583 1268.09 263.583 1268.09 258.75C1268.09 250.75 1266.25 244 1262.59 238.5C1259.09 232.833 1253.5 226.667 1245.84 220L1224.84 201.75C1216.5 194.75 1210.09 187.25 1205.59 179.25C1201.25 171.25 1199.09 161.667 1199.09 150.5C1199.09 134 1203.92 121.333 1213.59 112.5C1223.42 103.5 1236.92 99 1254.09 99C1272.42 99 1285.17 104.333 1292.34 115C1299.5 125.5 1303.59 138.917 1304.59 155.25L1268.84 160.5C1268.5 149.833 1267.25 142 1265.09 137C1263.09 131.833 1259 129.25 1252.84 129.25C1248.34 129.25 1244.84 131 1242.34 134.5C1239.84 137.833 1238.59 141.833 1238.59 146.5C1238.59 153.167 1240 158.833 1242.84 163.5C1245.84 168 1250.5 173 1256.84 178.5L1277.34 196.5C1287 205 1294.59 214 1300.09 223.5C1305.59 232.833 1308.34 243.833 1308.34 256.5C1308.34 266.167 1306.17 274.833 1301.84 282.5C1297.5 290 1291.34 295.917 1283.34 300.25C1275.5 304.583 1266.42 306.75 1256.09 306.75Z" fill="#515151"></path></g><defs><filter id="filter0_d" x="0" y="0" width="1448" height="387" color-interpolation-filters="sRGB"><feFlood flood-opacity="0" result="BackgroundImageFix"></feFlood><feColorMatrix in="SourceAlpha" type="matrix" values="0 0 0 0 0 0 0 0 0 0 0 0 0 0 0 0 0 0 127 0"></feColorMatrix><feOffset dy="4"></feOffset><feGaussianBlur stdDeviation="2"></feGaussianBlur><feColorMatrix type="matrix" values="0 0 0 0 0 0 0 0 0 0 0 0 0 0 0 0 0 0 0.25 0"></feColorMatrix><feBlend mode="normal" in2="BackgroundImageFix" result="effect1_dropShadow"></feBlend><feBlend mode="normal" in="SourceGraphic" in2="effect1_dropShadow" result="shape"></feBlend></filter><clipPath id="clip0"><rect width="1440" height="379" fill="white" transform="translate(4)"></rect></clipPath></defs></svg> 