<?xml version="1.0" encoding="UTF-8"?> <svg xmlns="http://www.w3.org/2000/svg" width="1440" height="367" viewBox="0 0 1440 367" fill="none"><g clip-path="url(#clip0)"><rect width="1440" height="367" fill="#4A4A4A"></rect><path d="M116.141 63.39H188.358C227.698 63.39 247.368 85.2143 247.368 128.863C247.368 151.905 241.748 168.297 230.508 178.038C219.268 187.592 203.626 192.369 183.581 192.369H162.225V291H116.141V63.39ZM178.804 159.773C188.733 159.773 195.383 157.431 198.755 152.748C202.127 148.065 203.813 139.822 203.813 128.02C203.813 120.339 203.251 114.345 202.127 110.036C201.003 105.54 198.568 102.074 194.821 99.639C191.262 97.2037 185.829 95.986 178.523 95.986H162.225V159.773H178.804ZM299.011 63.39H358.021C382.561 63.39 401.014 67.886 413.378 76.878C425.742 85.87 431.924 101.419 431.924 123.524C431.924 138.323 429.863 150.313 425.742 159.492C421.62 168.484 414.314 175.322 403.824 180.005L435.296 291H387.807L361.955 187.873H345.095V291H299.011V63.39ZM358.864 160.335C369.729 160.335 377.316 157.712 381.625 152.467C386.121 147.034 388.369 138.604 388.369 127.177C388.369 115.937 386.402 107.694 382.468 102.449C378.534 97.2037 371.415 94.581 361.112 94.581H345.095V160.335H358.864ZM491.498 63.39H537.582V291H491.498V63.39ZM664.049 294.091C639.883 294.091 622.649 287.815 612.345 275.264C602.042 262.525 596.89 243.886 596.89 219.345V134.483C596.89 109.942 602.042 91.49 612.345 79.126C622.649 66.762 639.883 60.58 664.049 60.58C688.028 60.58 705.169 66.8557 715.472 79.407C725.963 91.771 731.208 110.13 731.208 134.483V219.626C731.208 243.979 725.963 262.525 715.472 275.264C705.169 287.815 688.028 294.091 664.049 294.091ZM664.049 260.933C671.917 260.933 677.163 258.31 679.785 253.065C682.595 247.632 684 240.233 684 230.866V123.243C684 113.876 682.595 106.664 679.785 101.606C677.163 96.3607 671.917 93.738 664.049 93.738C656.181 93.738 650.842 96.3607 648.032 101.606C645.41 106.664 644.098 113.876 644.098 123.243V230.866C644.098 240.42 645.41 247.82 648.032 253.065C650.655 258.31 655.994 260.933 664.049 260.933ZM790.267 63.39H849.277C873.817 63.39 892.27 67.886 904.634 76.878C916.998 85.87 923.18 101.419 923.18 123.524C923.18 138.323 921.119 150.313 916.998 159.492C912.876 168.484 905.57 175.322 895.08 180.005L926.552 291H879.063L853.211 187.873H836.351V291H790.267V63.39ZM850.12 160.335C860.985 160.335 868.572 157.712 872.881 152.467C877.377 147.034 879.625 138.604 879.625 127.177C879.625 115.937 877.658 107.694 873.724 102.449C869.79 97.2037 862.671 94.581 852.368 94.581H836.351V160.335H850.12ZM982.754 63.39H1028.84V291H982.754V63.39ZM1112.87 97.672H1077.75V63.39H1194.08V97.672H1159.52V291H1112.87V97.672ZM1272.62 200.799L1228.22 63.39H1271.77L1296.22 143.475L1318.7 63.39H1361.13L1317.3 200.799V291H1272.62V200.799Z" fill="#515151"></path><rect y="291" width="1" height="1440" transform="rotate(-90 0 291)" fill="#575757"></rect><rect x="116" width="1" height="367" fill="#575757"></rect><rect x="1360" y="1" width="1" height="367" fill="#575757"></rect><rect x="982" width="1" height="367" fill="#575757"></rect><rect x="596" width="1" height="367" fill="#575757"></rect><rect x="248" width="1" height="367" fill="#575757"></rect></g><defs><clipPath id="clip0"><rect width="1440" height="367" fill="white"></rect></clipPath></defs></svg> 